<svg xmlns="http://www.w3.org/2000/svg" viewBox="0 0 335 36" id="dokfeesten-logo" preserveAspectRatio="xMidYMid meet" width="100%" title="">
    <g id="logotype" transform="translate(-45 -26)" title="">
        <!-- <rect fill="red" width="380" height="65"></rect> -->
        <g id="letter-d">
            <path d="M62.7754 54.1515C65.0325 54.2872 67.111 54.4301 68.6324 54.5587C70.6753 54.7372 73.2752 54.8515 76.0895 54.9015C76.5966 54.3801 77.0466 53.8444 77.4181 53.2944C77.1609 53.2444 76.918 53.1801 76.6395 53.1015C75.3752 52.7444 74.6395 52.6873 69.8039 52.5658C68.8325 52.5373 67.7467 52.5015 66.6682 52.4658C66.6039 52.5158 66.5396 52.573 66.4753 52.6158C65.3468 53.423 64.0611 53.8801 62.7825 54.1587" fill="#FE2c09"></path>
            <path d="M52.2684 58.2592C53.8756 57.9521 62.6326 57.8449 71.6468 58.0092C72.4753 57.6092 73.2039 57.1806 73.861 56.7378C71.1682 56.7949 66.8754 56.9449 63.1183 57.1306C60.0683 57.2806 54.3041 57.3806 48.4613 57.3806L46.9971 57.3092V58.1663C49.6328 58.2163 51.7756 58.3592 52.2613 58.2592" fill="#FE2c09"></path>
            <path d="M60.2112 56.0595C61.154 55.9738 61.9255 55.8381 61.9469 55.7453C61.9469 55.4453 60.4612 55.331 52.3756 55.0596C50.5399 54.9953 48.6613 54.931 46.9971 54.8667V55.8595C52.0541 56.0238 59.0255 56.1667 60.2112 56.0667" fill="#FE2c09"></path>
            <path d="M56.5184 34.8525H58.8255C61.1898 34.8525 64.1611 35.0739 66.4182 37.1596C68.2325 38.8668 69.2754 41.781 69.2754 45.1881C69.2754 48.8095 68.0111 51.0309 66.8825 52.2951H78.011C78.8324 50.0952 79.1752 47.7166 79.1752 45.1881C79.1752 41.231 78.3538 35.9454 74.061 31.824C69.3325 27.2598 63.1683 26.7598 59.4826 26.7598H46.9971V52.288H56.5112V34.8454L56.5184 34.8525Z" fill="#FE2c09"></path>
        </g>
        <g id="letter-o" title="">
            <path d="M116.696 56.8156C112.761 56.7656 110.268 56.6584 110.054 56.5013C109.825 56.337 109.732 56.1299 109.825 56.0156C109.925 55.9085 112.382 55.8442 117.911 55.8299C118.346 55.437 118.746 55.0228 119.111 54.6085C119.046 54.6085 118.982 54.6085 118.918 54.6085C111.382 54.4156 111.004 54.4013 110.275 54.0299C109.739 53.7656 108.625 53.5942 106.732 53.5014C105.382 53.9942 103.797 54.3085 101.897 54.3085C99.9967 54.3085 98.411 53.9728 97.0253 53.4585C93.8467 53.4871 89.2039 53.5085 85.6897 53.5085C84.9897 53.5085 84.3754 53.5085 83.7969 53.5085C84.1254 53.9799 84.4969 54.4371 84.904 54.887C85.8897 54.8656 86.8754 54.8299 87.8397 54.7942C91.1325 54.6728 97.0467 54.5585 101.004 54.5585C107.218 54.5585 108.182 54.5871 108.182 54.8085C108.182 55.387 106.711 55.4799 97.9395 55.5085C89.5611 55.537 88.3182 55.5942 88.2182 55.9227C88.0897 56.3656 94.6824 56.8442 103.697 57.0513C111.175 57.2156 112.361 57.3013 112.775 57.6727C112.982 57.837 112.832 57.937 112.096 58.0727C111.004 58.2941 101.382 58.5941 95.2253 58.6084C93.6753 58.6084 91.961 58.6513 90.3253 58.7227C91.3039 59.1727 92.3468 59.5513 93.4325 59.8727C93.9182 59.8727 94.3753 59.8656 94.8896 59.8584C105.339 59.787 106.282 59.7656 109.597 59.3656C110.489 59.2584 111.632 59.137 112.775 59.0227C114.075 58.4799 115.289 57.8441 116.361 57.0942C116.482 57.0084 116.575 56.9156 116.689 56.837" fill="#FE2c09"></path>
            <path d="M95.1896 52.5735C95.0253 52.4806 94.8467 52.3949 94.6896 52.2949H83.0469C83.0469 52.2949 83.0826 52.3521 83.0969 52.3806C84.6326 52.8092 87.7897 52.8449 95.0753 52.5806C95.111 52.5806 95.1467 52.5806 95.1824 52.5806" fill="#FE2c09"></path>
            <path d="M119.988 53.5021C120.267 53.1021 120.524 52.7021 120.745 52.2949H109.124C108.874 52.4735 108.581 52.6163 108.303 52.7735C111.603 52.8663 113.417 53.0021 116.224 53.2663C117.067 53.3449 118.417 53.4235 119.988 53.5092" fill="#FE2c09"></path>
            <path d="M87.7842 57.2954C87.9985 57.4383 88.2128 57.574 88.4413 57.7025C92.0556 57.574 92.1341 57.4526 87.7842 57.2954Z" fill="#FE2c09"></path>
            <path d="M94.4746 52.1238C93.096 50.8024 91.5603 48.5525 91.5603 45.3025C91.5603 42.7168 92.496 40.024 94.4746 38.0955C96.4531 36.1098 99.2602 35.1812 101.903 35.1812C104.546 35.1812 107.239 36.1741 109.274 38.0955C110.981 39.7454 112.246 42.274 112.246 45.1382C112.246 48.0025 110.981 50.4739 109.274 52.181C109.232 52.2239 109.174 52.2596 109.132 52.2953H120.753C121.681 49.9739 122.139 47.5239 122.139 45.1382C122.139 40.2454 120.267 35.0741 116.36 31.3884C112.617 27.817 107.339 25.9385 101.896 25.9385C96.4531 25.9385 91.1675 27.8099 87.4318 31.3884C83.5247 35.0741 81.6533 40.2454 81.6533 45.1382C81.6533 47.5239 82.1104 49.9739 83.0461 52.2953H94.6889C94.6246 52.231 94.5389 52.181 94.4746 52.1238Z" fill="#FE2c09"></path>
            <g></g>
            <g id="letter-g">
                <path d="M150.939 52.2949H139.496L140.275 53.0235C140.382 52.9949 141.153 52.6092 141.325 52.6592C143.146 53.2021 146.339 53.0521 150.939 52.2949Z" fill="#FE2c09"></path>
            </g>
            <g id="letter-k">
                <path d="M157.333 57.6035L156.011 56.4321C152.076 56.5249 148.126 55.7535 144.176 56.6678L145.369 57.782C151.319 58.832 154.733 58.3963 157.333 57.6035Z" fill="#FE2c09"></path>
                <path d="M152.896 53.6663C151.731 53.6449 150.489 53.6235 149.224 53.6092C144.453 53.5592 141.789 53.4949 140.682 53.4092L142.489 55.0949C148.332 56.3163 149.139 54.7663 154.731 55.2949L152.896 53.6663Z" fill="#FE2c09"></path>
                <path d="M135.789 56.7811C132.525 56.4312 129.282 56.5669 126.268 56.8454V58.2668C128.818 58.6311 128.66 57.1954 135.789 57.8097V56.7811Z" fill="#FE2c09"></path>
                <path d="M135.79 55.4597V54.8811C134.74 54.8526 133.125 55.2026 131.618 54.8169C130.375 54.4954 128.418 54.7883 126.275 54.7526V55.8097C133.197 56.4383 134.097 55.674 135.797 55.4597" fill="#FE2c09"></path>
                <path d="M135.789 54.352V52.2949H126.268V53.752C126.532 53.7592 126.81 53.8306 127.053 53.7735C131.56 52.6592 133.996 54.1663 135.782 54.352" fill="#FE2c09"></path>
                <path d="M135.789 47.5525L139.496 52.2953H151.353L144.639 44.1454L159.217 26.7671H147.446L135.789 41.8883V26.7671H126.268V52.2953H135.789V47.5525Z" fill="#FE2c09"></path>
                <path d="M148.203 58.9669C148.067 58.7526 146.974 58.7669 146.432 58.7883L146.939 59.2597C147.439 59.2383 148.332 59.1812 148.203 58.9669Z" fill="#FE2c09"></path>
                <path d="M135.709 59.1808V58.5022C135.709 58.5022 133.923 58.4451 133.952 58.6951C133.98 58.9522 134.88 59.1522 135.709 59.1808Z" fill="#FE2c09"></path>
            </g>
            <g id="letter-f">
                <path d="M170.933 54.7666C171.068 54.488 168.154 54.4952 164.311 54.288C164.197 54.288 164.076 54.2737 163.954 54.2666V55.2737C167.647 55.2237 170.825 55.0237 170.933 54.7666Z" fill="#FE2c09"></path>
                <path d="M163.954 60.4514H173.468V58.5942C170.725 58.5942 167.511 59.1299 163.954 59.3157V60.4514Z" fill="#FE2c09"></path>
                <path d="M167.59 53.1095C167.897 53.3452 170.09 53.4309 173.475 53.3595V52.2881H173.033C172.411 52.3452 171.754 52.4095 171.075 52.4595C167.668 52.7381 167.197 52.8167 167.59 53.1095Z" fill="#FE2c09"></path>
                <path d="M173.474 57.1246V55.5532C170.46 55.8175 167.181 56.0389 163.96 56.1889V57.3603C167.131 57.2532 170.381 57.1746 173.474 57.1246Z" fill="#FE2c09"></path>
                <path d="M173.475 49.0382H183.925V40.9526H173.475V34.8527H184.968V26.7671H163.954V52.2953H173.475V49.0382Z" fill="#FE2c09"></path>
            </g>
            <g id="letter-e1" title="">
                <path d="M200.417 56.874C203.502 56.8026 206.088 56.6955 206.159 56.624C206.574 56.3383 205.424 56.2669 198.624 56.1526C196.431 56.124 194.467 56.0955 193.103 56.0669V57.1955C194.138 57.1026 197.388 56.9526 200.41 56.8669" fill="#FE2c09"></path>
                <path d="M193.109 52.2949V52.6949C196.459 53.4163 200.052 53.0878 202.631 52.2949H193.109Z" fill="#FE2c09"></path>
                <path d="M208.216 58.3319C205.638 58.4676 202.152 58.7033 200.474 58.839C198.724 58.9819 195.945 59.0819 193.109 59.1247V60.139C198.466 59.989 204.645 59.739 207.609 59.5247C208.438 59.4533 211.266 59.3605 213.959 59.2747V57.8462C212.481 58.0176 210.209 58.2033 208.216 58.3248" fill="#FE2c09" title=""></path>
                <path d="M195.466 55.5885C197.709 55.5313 201.966 55.3956 204.938 55.2885C209.873 55.1099 210.495 55.1242 211.738 55.3813C212.266 55.4956 213.009 55.5956 213.959 55.6742V54.5313H202.631V53.6313C200.645 53.7599 198.038 53.9099 195.881 54.0099C194.995 54.0528 194.052 54.1028 193.109 54.1599V55.6742C193.788 55.6385 194.595 55.6099 195.466 55.5813" fill="#FE2c09" title=""></path>
                <path d="M202.631 49.0382H213.352V40.9526H202.631V34.8527H213.959V26.7671H193.109V52.2953H202.631V49.0382Z" fill="#FE2c09"></path>
            </g>
            <g id="letter-e2" title="">
                <path d="M222.487 53.8663C224.816 53.7306 227.644 53.6092 231.08 53.4949C231.344 53.4878 231.694 53.4806 232.001 53.4806V52.2949H229.044C228.709 52.7378 226.952 53.2949 222.487 52.6592V53.8735V53.8663Z" fill="#FE2c09"></path>
                <path d="M238.838 57.6306C239.331 57.4092 240.067 57.3092 243.331 57.1663V55.4592C240.603 55.4092 238.638 55.3449 238.253 55.2949C237.538 55.2021 232.188 55.0878 226.367 55.0306C225.003 55.0235 223.696 55.0092 222.481 54.9878V56.0592C222.91 56.0664 223.31 56.0806 223.767 56.0878C229.153 56.2092 230.51 56.3092 230.66 56.6378C230.81 56.9949 229.888 57.0663 223.539 57.2163C223.153 57.2235 222.824 57.2306 222.481 57.2449V58.4449C223.753 58.3806 225.667 58.3306 228.831 58.252C237.231 58.0592 238.038 58.002 238.831 57.6306" fill="#FE2c09" title=""></path>
                <path d="M239.681 58.5812C239.681 58.6883 241.181 58.7597 243.338 58.8026V58.1812C241.259 58.3026 239.681 58.474 239.681 58.5812Z" fill="#FE2c09"></path>
                <path d="M227.167 59.795C226.082 59.9022 225.696 60.3593 225.389 60.4521H243.338C243.081 58.7022 231.781 59.3522 227.167 59.795Z" fill="#FE2c09" title=""></path>
                <path d="M232.001 49.0382H242.73V40.9526H232.001V34.8527H243.337V26.7671H222.487V52.2953H232.001V49.0382Z" fill="#FE2c09" title=""></path>
            </g>
            <g id="letter-s">
                <path d="M254.861 52.7811C254.596 52.7597 254.332 52.7382 254.068 52.7168L252.854 54.3953C254.468 54.4811 256.425 54.5453 258.982 54.6025C257.425 54.1596 256.011 53.4954 254.861 52.7811Z" fill="#FE2c09"></path>
                <path d="M262.159 56.3232C265.174 56.1018 265.924 55.909 264.381 55.7732C263.817 55.7161 258.302 55.6304 252.002 55.5732L251.06 56.8804C256.967 56.6732 258.445 56.5947 262.159 56.3232Z" fill="#FE2c09"></path>
                <path d="M267.093 53.3595C266.929 53.688 266.693 53.988 266.386 54.2166C266.157 54.4023 265.814 54.5737 265.407 54.7237C267.114 54.7523 268.921 55.688 271.036 55.7166C273.114 55.7451 274.964 54.8523 276.593 54.8737C276.814 54.3452 276.979 53.8095 277.079 53.2666C273.786 53.3452 270.286 53.3809 267.086 53.3595" fill="#FE2c09"></path>
                <path d="M274.886 57.3452C273.058 57.4381 271.915 58.0881 269.915 57.6381C267.208 57.0309 255.194 57.8595 251.365 58.2309C251.079 58.2595 250.894 58.2523 250.729 58.2738C250.994 58.4023 251.258 58.5166 251.515 58.6309C257.572 58.3095 259.237 58.9095 253.029 59.2595C254.044 59.6452 254.844 59.9023 255.344 60.0452C256.115 60.0237 256.744 59.9952 257.094 59.9666C258.208 59.8738 263.065 59.5666 267.922 59.2809C269.529 59.188 271.201 59.0809 272.786 58.9809C273.136 58.7738 273.479 58.5666 273.815 58.3166C274.236 58.0095 274.558 57.6738 274.893 57.3452" fill="#FE2c09"></path>
                <path d="M277.271 51.2945C277.271 48.766 276.778 46.7303 274.907 44.7517C272.978 42.6589 270.564 41.8375 268.25 41.1232L265.336 40.2446C263.079 39.5804 262.421 38.9232 262.15 38.5947C261.764 38.1018 261.657 37.6018 261.657 36.9447C261.657 36.1161 262.043 35.5161 262.593 34.9661C263.529 34.0876 264.793 33.8661 265.729 33.8661C266.993 33.8661 269.136 34.0876 272 36.3447L275.793 28.9162C272.329 27.102 268.093 25.9448 264.464 25.9448C260.007 25.9448 256.929 27.5448 255.057 29.4091C253.464 31.0019 251.7 33.7519 251.7 38.2661C251.7 40.1375 251.922 42.7232 253.786 44.7589C255.272 46.4088 257.529 47.2303 259.064 47.7303L261.536 48.5017C263.907 49.216 265.329 49.6017 266.271 50.4302C266.929 50.9945 267.214 51.6731 267.286 52.3088H277.243C277.257 51.9802 277.271 51.6445 277.271 51.3088" fill="#FE2c09"></path>
            </g>
            <g id="letter-t">
                <path d="M288.993 52.7251V54.7322C290.615 54.6251 293.108 54.4751 295.229 54.3608C296.315 54.3037 297.415 54.2322 298.508 54.1608V52.418C297.822 52.4394 297.115 52.4608 296.372 52.4823C293.729 52.5608 291.058 52.6465 288.986 52.7323" fill="#FE2c09"></path>
                <path d="M291.707 56.4025C291.036 56.4025 290.05 56.4239 288.993 56.4525V57.8668C291.915 57.8382 295.407 58.7382 298.507 57.9168V55.1597C295.772 56.2311 293.793 56.3954 291.7 56.3954" fill="#FE2c09"></path>
                <path d="M288.993 52.2952V52.7238C291.065 52.6452 293.729 52.5524 296.379 52.4738C297.114 52.4524 297.822 52.4309 298.514 52.4095V52.2881H289L288.993 52.2952Z" fill="#FE2c09"></path>
                <path d="M298.51 34.8527H306.324V26.7671H281.188V34.8527H288.996V52.2953H298.51V34.8527Z" fill="#FE2c09"></path>
                <path d="M294.572 59.2021C295.3 58.8735 292.665 58.6163 288.993 58.5449V59.4592C291.936 59.3878 294.422 59.2735 294.572 59.2021Z" fill="#FE2c09"></path>
            </g>
            <g id="letter-e3">
                <path d="M321.452 52.3163V52.2949H311.938V52.8663C312.802 52.8163 313.745 52.7663 314.645 52.7378C316.745 52.6521 319.537 52.4806 321.452 52.3163Z" fill="#FE2c09"></path>
                <path d="M327.207 58.345C326.479 58.6807 329.115 58.9307 332.786 59.0022V58.0879C329.843 58.1593 327.357 58.2736 327.207 58.345Z" fill="#FE2c09"></path>
                <path d="M330.922 57.2166C331.608 57.2166 332.201 57.2166 332.787 57.2166V55.7809C330.587 55.7095 328.387 55.6595 326.494 55.6595C324.965 55.6595 323.722 55.5881 323.722 55.5095C323.722 55.1666 326.501 54.9809 332.779 54.9381V54.5381H321.451V54.0381C320.937 54.0595 320.43 54.0809 319.822 54.1024C317.23 54.2024 314.508 54.3524 311.93 54.5166V56.0952C312.837 56.0309 314.28 55.9666 315.715 55.9166C318.522 55.8166 319.294 55.8309 319.087 56.0023C318.801 56.2238 314.073 56.5023 311.93 56.4738V58.2237C314.623 58.1023 317.401 57.8809 320.651 57.5452C323.215 57.2809 325.23 57.2166 330.915 57.2166" fill="#FE2c09"></path>
                <path d="M321.452 49.0382H332.18V40.9526H321.452V34.8527H332.787V26.7671H311.938V52.2953H321.452V49.0382Z" fill="#FE2c09"></path>
            </g>
            <g id="letter-n">
                <path d="M340.208 52.2949V52.8021L349.729 52.2949H340.208Z" fill="#FE2c09"></path>
                <path d="M360.879 52.2949C362.336 52.3592 363.765 52.3163 365.165 52.4949C369.143 52.9878 373.293 53.6021 376.793 52.7449V52.3021H360.879V52.2949Z" fill="#FE2c09"></path>
                <path d="M342.672 56.345C341.994 56.2736 341.137 56.2093 340.208 56.145V58.9021C342.087 58.8307 345.308 58.7878 349.722 58.7593V56.8236C346.829 56.6807 344.444 56.5236 342.665 56.345" fill="#FE2c09"></path>
                <path d="M349.729 55.4034V53.5963C346.186 54.1106 342.279 53.7249 340.208 53.3892V55.3034C342.987 55.3177 346.151 55.3534 349.729 55.3963" fill="#FE2c09"></path>
                <path d="M363.88 57.2742L365.452 58.7456L376.787 58.7599V57.5099C374.909 57.4528 372.351 57.4028 369.302 57.3599C367.416 57.3314 365.623 57.3028 363.873 57.2671" fill="#FE2c09"></path>
                <path d="M359.458 53.1392L361.658 55.1963C361.658 55.1963 363.744 56.532 376.793 56.0463V54.2677C366.851 53.5963 359.458 53.1392 359.458 53.1392Z" fill="#FE2c09"></path>
                <path d="M367.272 26.7671V49.2025L349.729 26.7671H340.208V52.2953H349.729V41.0098L358.551 52.2953H376.786V26.7671H367.272Z" fill="#FE2c09"></path>
            </g>

        </g>
    </g>
</svg>

